opsz8_wdth125.ufo
<glyph name="A" format="2">
	<unicode hex="0041"/>
	<advance width="1348"/>
	<outline>
		<contour>
			<point x="-203.9970703125" y="0" type="line"/>
			<point x="-182.3566894531" y="88.001953125" type="line"/>
			<point x="6.6403808594" y="107.001953125" type="line"/>
			<point x="373.6530761719" y="688" type="line"/>
			<point x="944.4997558594" y="1531" type="line"/>
			<point x="1074.2518920898" y="1513" type="line"/>
			<point x="1095.2743530273" y="655" type="line"/>
			<point x="1117.2174072266" y="119.001953125" type="line"/>
			<point x="1297.2144775391" y="99.001953125" type="line"/>
			<point x="1293.5740966797" y="0" type="line"/>
			<point x="763.1327514648" y="0" type="line"/>
			<point x="766.7731323242" y="99.001953125" type="line"/>
			<point x="952.7702026367" y="119.001953125" type="line"/>
			<point x="938.272277832" y="648" type="line"/>
			<point x="930.8599853516" y="1167.4524536133" type="line"/>
			<point x="926.3685302734" y="1310.455871582" type="line"/>
			<point x="906.3685302734" y="1321.455871582" type="line"/>
			<point x="795.9180908203" y="1157.4182739258" type="line"/>
			<point x="482.6864624023" y="641.8672485352" type="line"/>
			<point x="173.7791748047" y="108.001953125" type="line"/>
			<point x="354.7762451172" y="88.001953125" type="line"/>
			<point x="344.1358642578" y="0" type="line"/>
		</contour>
		<contour>
			<point x="329.456237793" y="519.4295043945" type="line"/>
			<point x="375.2428588867" y="639.3071899414" type="line"/>
			<point x="690.047668457" y="633.3071899414" type="line"/>
			<point x="666.5243530273" y="533.4295043945" type="line"/>
		</contour>
		<contour>
			<point x="692.393737793" y="633.3071899414" type="line"/>
			<point x="1080.8350830078" y="641.3071899414" type="line"/>
			<point x="1071.1657714844" y="531.4295043945" type="line"/>
			<point x="668.8704223633" y="533.4295043945" type="line"/>
		</contour>
	</outline>
	<anchor name="bottom" x="523" y="0"/>
	<anchor name="ogonek" x="1098" y="0"/>
	<anchor name="top" x="954" y="1500"/>
	<anchor name="tonos" x="613" y="1500"/>
</glyph>
<glyph name="D" format="2">
	<unicode hex="0044"/>
	<advance width="1455"/>
	<outline>
		<contour>
			<point x="-74.5460205078" y="0" type="line"/>
			<point x="-54.9056396484" y="100.001953125" type="line"/>
			<point x="134.5714111328" y="120.001953125" type="line"/>
			<point x="264.4510498047" y="755" type="line"/>
			<point x="383.0906982422" y="1368.998046875" type="line"/>
			<point x="176.9735107422" y="1391.998046875" type="line"/>
			<point x="187.4539794922" y="1500" type="line"/>
			<point x="691.2344970703" y="1500" type="line" smooth="yes"/>
			<point x="1091.428527832" y="1500"/>
			<point x="1376.9605102539" y="1103"/>
			<point x="1340.7507324219" y="773" type="qcurve" smooth="yes"/>
			<point x="1306.0557861328" y="443"/>
			<point x="876.5364379883" y="0"/>
			<point x="528.857421875" y="0" type="qcurve" smooth="yes"/>
		</contour>
		<contour>
			<point x="297.4152832031" y="117.094909668" type="line"/>
			<point x="316.6038208008" y="113.6097412109"/>
			<point x="547.7272338867" y="104.094909668"/>
			<point x="606.4114990234" y="105.094909668" type="qcurve" smooth="yes"/>
			<point x="774.9468383789" y="109.094909668"/>
			<point x="1143.6362304688" y="451.6994018555"/>
			<point x="1178.7639160156" y="765" type="qcurve" smooth="yes"/>
			<point x="1215.2325439453" y="1080.7355957031"/>
			<point x="975.5183105469" y="1393.2967529297"/>
			<point x="737.8141479492" y="1389.2967529297" type="qcurve" smooth="yes"/>
			<point x="678.9413452148" y="1387.2967529297"/>
			<point x="560.4436035156" y="1378.2967529297"/>
			<point x="533.9775390625" y="1375.2967529297" type="qcurve"/>
			<point x="415.5441894531" y="754" type="line"/>
		</contour>
	</outline>
	<anchor name="bottom" x="686" y="0"/>
	<anchor name="center" x="448" y="754"/>
	<anchor name="top" x="827" y="1500"/>
	<anchor name="liga" x="1431" y="0"/>
</glyph>
<glyph name="F" format="2">
	<unicode hex="0046"/>
	<advance width="1009"/>
	<outline>
		<contour>
			<point x="-76.2132568359" y="0" type="line"/>
			<point x="-59.5728759766" y="91.001953125" type="line"/>
			<point x="131.4241943359" y="118.001953125" type="line"/>
			<point x="261.7838134766" y="760" type="line"/>
			<point x="371.1434326172" y="1364.998046875" type="line"/>
			<point x="160.1463623047" y="1387.998046875" type="line"/>
			<point x="174.7867431641" y="1500" type="line"/>
			<point x="1145.9315185547" y="1500" type="line"/>
			<point x="1084.9674682617" y="1165.7944946289" type="line"/>
			<point x="991.7922973633" y="1165.7944946289" type="line"/>
			<point x="996.4966430664" y="1393.8628540039" type="line"/>
			<point x="569.4408569336" y="1391.8628540039" type="line"/>
			<point x="533.4408569336" y="1371.8628540039" type="line"/>
			<point x="403.876953125" y="767" type="line"/>
			<point x="293.5173339844" y="113.001953125" type="line"/>
			<point x="485.5144042969" y="91.001953125" type="line"/>
			<point x="468.8740234375" y="0" type="line"/>
		</contour>
		<contour>
			<point x="318.955871582" y="687.2572631836" type="line"/>
			<point x="330.2614135742" y="780.7416381836" type="line"/>
			<point x="780.4547119141" y="787.7416381836" type="line"/>
			<point x="853.8273925781" y="944.1416625977" type="line"/>
			<point x="915.1081542969" y="944.1416625977" type="line"/>
			<point x="841.0187988281" y="494.9181518555" type="line"/>
			<point x="771.7380371094" y="494.9181518555" type="line"/>
			<point x="772.9752807617" y="675.9094848633" type="line"/>
		</contour>
	</outline>
	<anchor name="bottom" x="578" y="0"/>
	<anchor name="top" x="622" y="1500"/>
</glyph>
<glyph name="G" format="2">
	<unicode hex="0047"/>
	<advance width="1597"/>
	<outline>
		<contour>
			<point x="185.240234375" y="853" type="qcurve" smooth="yes"/>
			<point x="284.240234375" y="1196"/>
			<point x="733.5001583979" y="1563.0250854492"/>
			<point x="1004.3112545893" y="1519.5992431641" type="qcurve" smooth="yes"/>
			<point x="1107.8462277338" y="1503.5992431641"/>
			<point x="1240.7458249018" y="1471.9996337891"/>
			<point x="1304.6929684564" y="1444.5997314453" type="qcurve" smooth="yes"/>
			<point x="1326.1686154291" y="1434.5998535156" type="line"/>
			<point x="1360.5701046869" y="1420" type="line"/>
			<point x="1296.0492916986" y="1058.5169067383" type="line"/>
			<point x="1207.1083737299" y="1058.5169067383" type="line"/>
			<point x="1214.2740231439" y="1273.0361938477" type="line"/>
			<point x="1186.6505490228" y="1323.635925293"/>
			<point x="1082.1615963861" y="1388.6354370117"/>
			<point x="1037.722082226" y="1397.6354370117" type="qcurve" smooth="yes"/>
			<point x="810.659582226" y="1430.6166992188"/>
			<point x="446.2360839844" y="1129"/>
			<point x="361.2360839844" y="817" type="qcurve" smooth="yes"/>
			<point x="289.0806884766" y="556"/>
			<point x="423.652563183" y="162.4685058594"/>
			<point x="591.9344845697" y="116.3379516602" type="qcurve" smooth="yes"/>
			<point x="700.1843624994" y="82.0335083008"/>
			<point x="984.1009274408" y="138.1371459961"/>
			<point x="1041.7957516596" y="191.1371459961" type="qcurve"/>
			<point x="1135.7192746088" y="583.998046875" type="line"/>
			<point x="940.8423214838" y="609.4780273438" type="line"/>
			<point x="956.3625851557" y="712" type="line"/>
			<point x="1441.0436764643" y="712" type="line"/>
			<point x="1422.5234127924" y="607.2780761719" type="line"/>
			<point x="1297.4062252924" y="582.998046875" type="line"/>
			<point x="1198.0466061518" y="171" type="line"/>
			<point x="1167.2908078119" y="138" type="line"/>
			<point x="1099.4278317377" y="68"/>
			<point x="774.9413205072" y="-38.7991943359"/>
			<point x="582.9410763666" y="-15.7991943359" type="qcurve" smooth="yes"/>
			<point x="343.2692013666" y="11.2008056641"/>
			<point x="83.240234375" y="499"/>
		</contour>
	</outline>
	<anchor name="bottom" x="667" y="0"/>
	<anchor name="top" x="907" y="1492"/>
</glyph>
<glyph name="H" format="2">
	<unicode hex="0048"/>
	<advance width="1563"/>
	<outline>
		<contour>
			<point x="-70.3034667969" y="0" type="line"/>
			<point x="-47.6630859375" y="99.001953125" type="line"/>
			<point x="141.333984375" y="119.001953125" type="line"/>
			<point x="276.6936035156" y="806" type="line"/>
			<point x="382.0532226562" y="1364.998046875" type="line"/>
			<point x="180.0561523438" y="1386.998046875" type="line"/>
			<point x="191.6965332031" y="1500" type="line"/>
			<point x="750.6865234375" y="1500" type="line"/>
			<point x="729.0461425781" y="1387.998046875" type="line"/>
			<point x="543.0490722656" y="1364.998046875" type="line"/>
			<point x="428.689453125" y="777" type="line"/>
			<point x="308.3298339844" y="119.001953125" type="line"/>
			<point x="501.3269042969" y="99.001953125" type="line"/>
			<point x="488.6865234375" y="0" type="line"/>
		</contour>
		<contour>
			<point x="346" y="738" type="line"/>
			<point x="367" y="855" type="line"/>
			<point x="787.0054321289" y="849.0032958984" type="line"/>
			<point x="1223.1518554688" y="852.0032958984" type="line"/>
			<point x="1201.9329833984" y="735.8217163086" type="line"/>
			<point x="762.8838500977" y="724.8217163086" type="line"/>
		</contour>
		<contour>
			<point x="811.7014160156" y="0" type="line"/>
			<point x="834.341796875" y="99.001953125" type="line"/>
			<point x="1027.3388671875" y="119.001953125" type="line"/>
			<point x="1154.6984863281" y="772" type="line"/>
			<point x="1262.0581054688" y="1363.998046875" type="line"/>
			<point x="1086.0610351562" y="1386.998046875" type="line"/>
			<point x="1097.7014160156" y="1500" type="line"/>
			<point x="1644.9923095703" y="1500" type="line"/>
			<point x="1623.3519287109" y="1386.998046875" type="line"/>
			<point x="1428.3548583984" y="1363.998046875" type="line"/>
			<point x="1307.9952392578" y="755" type="line"/>
			<point x="1193.6356201172" y="119.001953125" type="line"/>
			<point x="1395.6326904297" y="99.001953125" type="line"/>
			<point x="1382.9923095703" y="0" type="line"/>
		</contour>
	</outline>
	<anchor name="bottom" x="607" y="0"/>
	<anchor name="center" x="820" y="1079"/>
	<anchor name="top" x="950" y="1500"/>
	<anchor name="tonos" x="81" y="1500"/>
	<anchor name="cy_descender" x="1399" y="100"/>
</glyph>
<glyph name="I" format="2">
	<unicode hex="0049"/>
	<advance width="691"/>
	<outline>
		<contour>
			<point x="-61.1519775391" y="0" type="line"/>
			<point x="-42.5115966797" y="90.001953125" type="line"/>
			<point x="146.4854736328" y="110.001953125" type="line"/>
			<point x="290.8450927734" y="806" type="line"/>
			<point x="394.9647216797" y="1364.998046875" type="line"/>
			<point x="198.9676513672" y="1387.998046875" type="line"/>
			<point x="210.8480224609" y="1500" type="line"/>
			<point x="763.0857543945" y="1500" type="line"/>
			<point x="741.2053833008" y="1387.998046875" type="line"/>
			<point x="555.2083129883" y="1364.998046875" type="line"/>
			<point x="438.088684082" y="790" type="line"/>
			<point x="306.7290649414" y="110.001953125" type="line"/>
			<point x="499.7261352539" y="90.001953125" type="line"/>
			<point x="491.0857543945" y="0" type="line"/>
		</contour>
	</outline>
	<anchor name="bottom" x="220" y="0"/>
	<anchor name="ogonek" x="356" y="0"/>
	<anchor name="top" x="503" y="1500"/>
	<anchor name="tonos" x="81" y="1500"/>
	<anchor name="yu_dash" x="365" y="795"/>
	<anchor name="liga" x="712" y="0"/>
</glyph>
<glyph name="J" format="2">
	<unicode hex="004A"/>
	<advance width="688"/>
	<outline>
		<contour>
			<point x="30.0200195312" y="-216" type="qcurve"/>
			<point x="65.064453125" y="-93.7339477539" type="line"/>
			<point x="86.0852050781" y="-105.7339477539"/>
			<point x="137.731262207" y="-119.7339477539"/>
			<point x="154.9595336914" y="-119.7339477539" type="qcurve" smooth="yes"/>
			<point x="158.0986328125" y="-119.7339477539"/>
			<point x="179.6702270508" y="-13.9078369141"/>
			<point x="203.4963378906" y="113.2660522461" type="qcurve" smooth="yes"/>
			<point x="321.4519042969" y="754" type="line"/>
			<point x="426.5715332031" y="1366.998046875" type="line"/>
			<point x="218.2941894531" y="1390.998046875" type="line"/>
			<point x="234.7746582031" y="1500" type="line"/>
			<point x="801.0123901367" y="1500" type="line"/>
			<point x="776.5319213867" y="1390.998046875" type="line"/>
			<point x="588.0551147461" y="1366.998046875" type="line"/>
			<point x="463.6954956055" y="754" type="line"/>
			<point x="379.6954956055" y="216" type="line" smooth="yes"/>
			<point x="340.6954956055" y="-35"/>
			<point x="202.6530761719" y="-259"/>
			<point x="166.6770629883" y="-259" type="qcurve" smooth="yes"/>
			<point x="120.2382202148" y="-259"/>
			<point x="39.1057128906" y="-230"/>
		</contour>
	</outline>
	<anchor name="bottom" x="376" y="-208"/>
	<anchor name="top" x="533" y="1500"/>
	<anchor name="_liga" x="0" y="0"/>
</glyph>
<glyph name="K" format="2">
	<unicode hex="004B"/>
	<advance width="1284"/>
	<outline>
		<contour>
			<point x="-70.3034667969" y="0" type="line"/>
			<point x="-52.6630859375" y="93.001953125" type="line"/>
			<point x="136.333984375" y="113.001953125" type="line"/>
			<point x="276.6936035156" y="806" type="line"/>
			<point x="376.8132324219" y="1364.998046875" type="line"/>
			<point x="180.8161621094" y="1387.998046875" type="line"/>
			<point x="191.6965332031" y="1500" type="line"/>
			<point x="745.137878418" y="1500" type="line"/>
			<point x="724.2575073242" y="1387.998046875" type="line"/>
			<point x="538.2604370117" y="1364.998046875" type="line"/>
			<point x="423.1408081055" y="790" type="line"/>
			<point x="311" y="124" type="line"/>
			<point x="490.7782592773" y="93.001953125" type="line"/>
			<point x="483.137878418" y="0" type="line"/>
		</contour>
		<contour>
			<point x="303" y="540" type="line"/>
			<point x="331" y="693" type="line"/>
			<point x="1039.676940918" y="1360.998046875" type="line"/>
			<point x="934.6798706055" y="1393.998046875" type="line"/>
			<point x="944.5602416992" y="1500" type="line"/>
			<point x="1441.6492919922" y="1500" type="line"/>
			<point x="1431.7689208984" y="1405.998046875" type="line"/>
			<point x="1281.7718505859" y="1381.998046875" type="line"/>
		</contour>
		<contour>
			<point x="589" y="874" type="line"/>
			<point x="717" y="993" type="line"/>
			<point x="1135.6391601562" y="105.001953125" type="line"/>
			<point x="1315.6362304688" y="85.001953125" type="line"/>
			<point x="1312.9958496094" y="0" type="line"/>
			<point x="782.5545043945" y="0" type="line"/>
			<point x="785.1948852539" y="85.001953125" type="line"/>
			<point x="875" y="124" type="line"/>
		</contour>
	</outline>
	<anchor name="bottom" x="607" y="0"/>
	<anchor name="top" x="896" y="1500"/>
	<anchor name="kai_tail" x="1201" y="100"/>
</glyph>
<glyph name="L" format="2">
	<unicode hex="004C"/>
	<advance width="1038"/>
	<outline>
		<contour>
			<point x="-77.9400634766" y="0" type="line"/>
			<point x="-51.2996826172" y="95.001953125" type="line"/>
			<point x="127.6973876953" y="115.001953125" type="line"/>
			<point x="259.0570068359" y="754" type="line"/>
			<point x="371.4166259766" y="1374.998046875" type="line"/>
			<point x="174.4195556641" y="1388.998046875" type="line"/>
			<point x="185.0599365234" y="1500" type="line"/>
			<point x="748.297668457" y="1500" type="line"/>
			<point x="727.6572875977" y="1388.998046875" type="line"/>
			<point x="530.6602172852" y="1374.998046875" type="line"/>
			<point x="420.3005981445" y="754" type="line"/>
			<point x="297.0411376953" y="130.1376953125" type="line"/>
			<point x="323.0411376953" y="103.1376953125" type="line"/>
			<point x="838.9835205078" y="103.1376953125" type="line"/>
			<point x="1024.0531005859" y="391.0582275391" type="line"/>
			<point x="1105.1363525391" y="391.0582275391" type="line"/>
			<point x="932.2417602539" y="0" type="line"/>
		</contour>
	</outline>
	<anchor name="bottom" x="535" y="0"/>
	<anchor name="centerright" x="755" y="750"/>
	<anchor name="top" x="878" y="1500"/>
	<anchor name="topright" x="804" y="1001"/>
	<anchor name="center" x="397" y="750"/>
	<anchor name="liga" x="1104" y="0"/>
</glyph>
<glyph name="M" format="2">
	<unicode hex="004D"/>
	<advance width="1875"/>
	<outline>
		<contour>
			<point x="-103.2132568359" y="0" type="line"/>
			<point x="-85.5728759766" y="106.001953125" type="line"/>
			<point x="103.4241943359" y="126.001953125" type="line"/>
			<point x="235.2855224609" y="754" type="line"/>
			<point x="352.9034423828" y="1357.998046875" type="line"/>
			<point x="146.9063720703" y="1381.998046875" type="line"/>
			<point x="169.7867431641" y="1500" type="line"/>
			<point x="607.3251342773" y="1500" type="line"/>
			<point x="721.6669311523" y="773.4658203125" type="line"/>
			<point x="815" y="327" type="line"/>
			<point x="831" y="213" type="line"/>
			<point x="841" y="213" type="line"/>
			<point x="900" y="327" type="line"/>
			<point x="1168.536315918" y="867.5529785156" type="line"/>
			<point x="1550.7484741211" y="1500" type="line"/>
			<point x="1936.2028808594" y="1500" type="line"/>
			<point x="1912.3225097656" y="1384.998046875" type="line"/>
			<point x="1726.3254394531" y="1361.998046875" type="line"/>
			<point x="1606.2058105469" y="771" type="line"/>
			<point x="1489.8461914062" y="126.001953125" type="line"/>
			<point x="1691.8432617188" y="106.001953125" type="line"/>
			<point x="1683.2028808594" y="0" type="line"/>
			<point x="1108.9651489258" y="0" type="line"/>
			<point x="1127.6055297852" y="106.001953125" type="line"/>
			<point x="1320.6026000977" y="126.001953125" type="line"/>
			<point x="1456.9622192383" y="787.8495483398" type="line"/>
			<point x="1580" y="1244" type="line"/>
			<point x="1606" y="1363" type="line"/>
			<point x="1597" y="1365" type="line"/>
			<point x="1539" y="1258" type="line"/>
			<point x="1259.7404174805" y="759.1196289062" type="line"/>
			<point x="797.7064208984" y="-8" type="line"/>
			<point x="722.1387329102" y="-8" type="line"/>
			<point x="587.8852539062" y="737.6247558594" type="line"/>
			<point x="499" y="1249" type="line"/>
			<point x="485" y="1357" type="line"/>
			<point x="474" y="1355" type="line"/>
			<point x="456" y="1235" type="line"/>
			<point x="391.5720825195" y="754" type="line"/>
			<point x="262.2124633789" y="126.001953125" type="line"/>
			<point x="480.2095336914" y="106.001953125" type="line"/>
			<point x="468.569152832" y="0" type="line"/>
		</contour>
	</outline>
	<anchor name="bottom" x="768" y="0"/>
	<anchor name="top" x="1048" y="1500"/>
</glyph>
<glyph name="N" format="2">
	<unicode hex="004E"/>
	<advance width="1509"/>
	<outline>
		<contour>
			<point x="-103.2132568359" y="0" type="line"/>
			<point x="-80.5728759766" y="108.001953125" type="line"/>
			<point x="105.4241943359" y="115.001953125" type="line"/>
			<point x="235.7838134766" y="754" type="line"/>
			<point x="355.1434326172" y="1371.998046875" type="line"/>
			<point x="147.1463623047" y="1382.998046875" type="line"/>
			<point x="169.7867431641" y="1500" type="line"/>
			<point x="607.0006103516" y="1500" type="line"/>
			<point x="895.510559082" y="773.7378540039" type="line"/>
			<point x="1033.9636230469" y="412.8906860352" type="line"/>
			<point x="1075.0531616211" y="304.5189208984" type="line"/>
			<point x="1087.0531616211" y="307.5189208984" type="line"/>
			<point x="1106.2036132812" y="431.3684692383" type="line"/>
			<point x="1176.5325317383" y="773" type="line"/>
			<point x="1285.8921508789" y="1363.998046875" type="line"/>
			<point x="1071.8950805664" y="1387.998046875" type="line"/>
			<point x="1085.5354614258" y="1500" type="line"/>
			<point x="1649.4072875977" y="1500" type="line"/>
			<point x="1637.7669067383" y="1386.998046875" type="line"/>
			<point x="1433.7698364258" y="1362.998046875" type="line"/>
			<point x="1313.4102172852" y="754" type="line"/>
			<point x="1166.4102172852" y="0" type="line"/>
			<point x="1022.0842895508" y="0" type="line"/>
			<point x="726.9572753906" y="761.3852539062" type="line"/>
			<point x="550.9201660156" y="1189.1981811523" type="line"/>
			<point x="494.024597168" y="1323.4263305664" type="line"/>
			<point x="482.024597168" y="1320.4263305664" type="line"/>
			<point x="459.1750488281" y="1175.5767822266" type="line"/>
			<point x="376.6614990234" y="754" type="line"/>
			<point x="246.3018798828" y="118.001953125" type="line"/>
			<point x="470.2989501953" y="105.001953125" type="line"/>
			<point x="450.6585693359" y="0" type="line"/>
		</contour>
	</outline>
	<anchor name="bottom" x="640" y="0"/>
	<anchor name="top" x="884" y="1500"/>
	<anchor name="engtail" x="1041" y="0"/>
	<anchor name="liga" x="1432" y="0"/>
</glyph>
<glyph name="O" format="2">
	<unicode hex="004F"/>
	<advance width="1534"/>
	<outline>
		<contour>
			<point x="102.9875237379" y="875" type="qcurve" smooth="yes"/>
			<point x="191.7397820386" y="1225"/>
			<point x="670.8231560621" y="1560.3004760742"/>
			<point x="954.0230461988" y="1514.4509277344" type="qcurve" smooth="yes"/>
			<point x="1230.8288933668" y="1468.9360961914"/>
			<point x="1505.3595940504" y="983"/>
			<point x="1414.2533928785" y="636" type="qcurve" smooth="yes"/>
			<point x="1317.9670769605" y="265"/>
			<point x="833.8515984449" y="-56.0152587891"/>
			<point x="558.230138484" y="-21.6508789062" type="qcurve" smooth="yes"/>
			<point x="266.210241023" y="14.8342895508"/>
			<point x="12.2352654371" y="509"/>
		</contour>
		<contour>
			<point x="275.0867465569" y="831" type="qcurve" smooth="yes"/>
			<point x="211.3980258538" y="556"/>
			<point x="344.5785068108" y="144.2257080078"/>
			<point x="547.2713779045" y="107.2257080078" type="qcurve" smooth="yes"/>
			<point x="745.846573217" y="70.2257080078"/>
			<point x="1164.0138705803" y="361"/>
			<point x="1238.6176913811" y="662" type="qcurve" smooth="yes"/>
			<point x="1308.7066806389" y="963"/>
			<point x="1107.5126498772" y="1357.2693481445"/>
			<point x="907.7533114983" y="1384.0954589844" type="qcurve" smooth="yes"/>
			<point x="683.7484286858" y="1415.9215698242"/>
			<point x="344.9362948967" y="1140"/>
		</contour>
	</outline>
	<anchor name="bottom" x="612" y="0"/>
	<anchor name="center" x="765" y="756"/>
	<anchor name="ogonek" x="844" y="0"/>
	<anchor name="top" x="906" y="1500"/>
	<anchor name="topright" x="1044" y="1500"/>
	<anchor name="tonos" x="230" y="1500"/>
	<anchor name="_yu_dash" x="174" y="795"/>
</glyph>
<glyph name="P" format="2">
	<unicode hex="0050"/>
	<advance width="1160"/>
	<outline>
		<contour>
			<point x="-88.733215332" y="0" type="line"/>
			<point x="-62.3728637695" y="100.001953125" type="line"/>
			<point x="118.624206543" y="112.001953125" type="line"/>
			<point x="256" y="754" type="line"/>
			<point x="357.6635131836" y="1365.998046875" type="line"/>
			<point x="155.6664428711" y="1384.998046875" type="line"/>
			<point x="167.266784668" y="1500" type="line"/>
			<point x="826.6869506836" y="1500" type="line" smooth="yes"/>
			<point x="1011.6464233398" y="1500"/>
			<point x="1248.9369506836" y="1218"/>
			<point x="1208.0416870117" y="1006" type="qcurve" smooth="yes"/>
			<point x="1164.1464233398" y="779"/>
			<point x="839.2481689453" y="587.080078125"/>
			<point x="637.6012573242" y="587.080078125" type="qcurve" smooth="yes"/>
			<point x="546.1593017578" y="587.080078125"/>
			<point x="305.8828125" y="602.6017456055"/>
			<point x="317" y="628" type="qcurve"/>
			<point x="337" y="733" type="line"/>
			<point x="325.3093261719" y="714"/>
			<point x="532.6705322266" y="699"/>
			<point x="627.16015625" y="699" type="qcurve" smooth="yes"/>
			<point x="793.0233154297" y="699"/>
			<point x="983.3264160156" y="873.8656005859"/>
			<point x="1013.3264160156" y="1037.8656005859" type="qcurve" smooth="yes"/>
			<point x="1039.3264160156" y="1183.8656005859"/>
			<point x="926.2335205078" y="1393.8184204102"/>
			<point x="767.1297607422" y="1393.8184204102" type="qcurve" smooth="yes"/>
			<point x="554.3120117188" y="1393.8184204102" type="line"/>
			<point x="527.7903442383" y="1369.9056396484" type="line"/>
			<point x="419" y="764" type="line"/>
			<point x="288.7173461914" y="118.001953125" type="line"/>
			<point x="475.7144165039" y="97.001953125" type="line"/>
			<point x="464.3540649414" y="0" type="line"/>
		</contour>
	</outline>
	<anchor name="bottom" x="634" y="0"/>
	<anchor name="top" x="634" y="1500"/>
</glyph>
<glyph name="Q" format="2">
	<unicode hex="0051"/>
	<advance width="1533"/>
	<outline>
		<contour>
			<point x="103.101951995" y="876" type="qcurve" smooth="yes"/>
			<point x="193.8542102958" y="1226"/>
			<point x="691.1868286133" y="1562.2893066406"/>
			<point x="955.6819690849" y="1519.5992431641" type="qcurve" smooth="yes"/>
			<point x="1242.7672729492" y="1474.0844116211"/>
			<point x="1506.1393055107" y="987"/>
			<point x="1414.3678211357" y="636" type="qcurve" smooth="yes"/>
			<point x="1324.9797973633" y="288"/>
			<point x="842.9298938896" y="-44.0283203125"/>
			<point x="561.2835315849" y="-9.9986572266" type="qcurve" smooth="yes"/>
			<point x="260.4139637138" y="26.4526977539"/>
			<point x="18.3496936943" y="540"/>
		</contour>
		<contour>
			<point x="275.2392200614" y="831" type="qcurve" smooth="yes"/>
			<point x="218.0653309013" y="586"/>
			<point x="351.1876831055" y="177.8779296875"/>
			<point x="554.407409668" y="140.8779296875" type="qcurve" smooth="yes"/>
			<point x="752.9826049805" y="103.8779296875"/>
			<point x="1172.1366809989" y="390"/>
			<point x="1238.7701648857" y="662" type="qcurve" smooth="yes"/>
			<point x="1309.8888172294" y="965"/>
			<point x="1109.2096180107" y="1362.4176635742"/>
			<point x="909.4502796318" y="1389.2437744141" type="qcurve" smooth="yes"/>
			<point x="685.4453968193" y="1421.0698852539"/>
			<point x="346.7243885185" y="1140"/>
		</contour>
		<contour>
			<point x="382" y="-3" type="qcurve"/>
			<point x="959.6653675224" y="-323.0336303711" type="line" smooth="yes"/>
			<point x="1043.4514392997" y="-358.758972168"/>
			<point x="1182.6166004325" y="-311.6037597656"/>
			<point x="1245.6166004325" y="-177.7542114258" type="qcurve"/>
			<point x="1373.7670520927" y="-235.6037597656" type="line"/>
			<point x="1311.1131214286" y="-394.2656860352"/>
			<point x="1105.2060169364" y="-543.7316894531"/>
			<point x="954.8609851982" y="-524.1740112305" type="qcurve"/>
			<point x="396.4506458427" y="-263.914855957" type="line"/>
			<point x="332.8047107841" y="-240.7112426758"/>
			<point x="211.2736438896" y="-268.5034790039"/>
			<point x="153.627708831" y="-322.1494140625" type="qcurve"/>
			<point x="71.9908069755" y="-240.4683837891" type="line"/>
			<point x="118.0780262138" y="-153.3189697266"/>
			<point x="296" y="5"/>
		</contour>
		<contour>
			<point x="320" y="-53" type="line"/>
			<point x="426" y="75"/>
			<point x="421.9769897461" y="47.4827270508"/>
			<point x="499.9769897461" y="112.4827270508" type="qcurve" smooth="yes"/>
			<point x="507.9769897461" y="120.4827270508"/>
			<point x="654" y="332"/>
			<point x="534.9769897461" y="144.4827270508" type="qcurve"/>
			<point x="566.9769897461" y="134.4827270508"/>
			<point x="643.5447387695" y="95.8716430664"/>
			<point x="658.5447387695" y="82.8716430664" type="qcurve"/>
			<point x="646.5447387695" y="69.8716430664"/>
			<point x="628.5447387695" y="53.8716430664"/>
			<point x="615.5447387695" y="43.8716430664" type="qcurve" smooth="yes"/>
			<point x="541.3942871094" y="-7.2788085938"/>
			<point x="506" y="28"/>
			<point x="401" y="-88" type="qcurve"/>
		</contour>
	</outline>
	<anchor name="bottom" x="832" y="0"/>
	<anchor name="top" x="832" y="1500"/>
</glyph>
<glyph name="R" format="2">
	<unicode hex="0052"/>
	<advance width="1219"/>
	<outline>
		<contour>
			<point x="-93.2132568359" y="0" type="line"/>
			<point x="-68.5728759766" y="98.001953125" type="line"/>
			<point x="113.4241943359" y="113.001953125" type="line"/>
			<point x="247.7838134766" y="784" type="line"/>
			<point x="344.9034423828" y="1363.998046875" type="line"/>
			<point x="143.3062744141" y="1387.998046875" type="line"/>
			<point x="153.7867431641" y="1500" type="line"/>
			<point x="780.977355957" y="1500" type="line" smooth="yes"/>
			<point x="985.9267578125" y="1500"/>
			<point x="1197.5368652344" y="1282.1283569336"/>
			<point x="1168.6044921875" y="1097.0833740234" type="qcurve" smooth="yes"/>
			<point x="1144.1011962891" y="938.5600585938"/>
			<point x="889.8394775391" y="713.1667480469"/>
			<point x="756.3020019531" y="713.1667480469" type="qcurve" smooth="yes"/>
			<point x="694.1774902344" y="713.1667480469"/>
			<point x="402.2869873047" y="712.1667480469"/>
			<point x="364.58984375" y="717.1667480469" type="qcurve"/>
			<point x="371.3303833008" y="815" type="line"/>
			<point x="472.0274047852" y="815" type="line"/>
			<point x="689.0234985352" y="815" type="line" smooth="yes"/>
			<point x="858.4119873047" y="815"/>
			<point x="961.532043457" y="965.7805786133"/>
			<point x="980.5374145508" y="1126.0833740234" type="qcurve" smooth="yes"/>
			<point x="995.0211181641" y="1251.4733886719"/>
			<point x="912.5319824219" y="1391.1667480469"/>
			<point x="778.3452148438" y="1391.1667480469" type="qcurve" smooth="yes"/>
			<point x="550.2868652344" y="1391.1667480469" type="line"/>
			<point x="513.1129760742" y="1373.1667480469" type="line"/>
			<point x="395.0274047852" y="754" type="line"/>
			<point x="286.9077758789" y="115.001953125" type="line"/>
			<point x="459.664855957" y="101.001953125" type="line"/>
			<point x="455.0244750977" y="0" type="line"/>
		</contour>
		<contour>
			<point x="616" y="792" type="line"/>
			<point x="798.9046020508" y="796.1929321289" type="line"/>
			<point x="822.6335449219" y="709.5757446289" type="line" smooth="yes"/>
			<point x="891.3057250977" y="486.7728881836"/>
			<point x="1044.5418701172" y="140.8469848633"/>
			<point x="1201.4439086914" y="126.3505249023" type="qcurve"/>
			<point x="1176.2857666016" y="0" type="line"/>
			<point x="1114.8646850586" y="0" type="line" smooth="yes"/>
			<point x="915.9791259766" y="0"/>
			<point x="656" y="447"/>
			<point x="655.9790039062" y="682.7623291016" type="qcurve" smooth="yes"/>
		</contour>
	</outline>
	<anchor name="bottom" x="573" y="0"/>
	<anchor name="top" x="670" y="1500"/>
</glyph>
<glyph name="T" format="2">
	<unicode hex="0054"/>
	<advance width="1150"/>
	<outline>
		<contour>
			<point x="58.0364379883" y="1106.7125244141" type="line"/>
			<point x="133.7185058594" y="1500" type="line"/>
			<point x="1298.9497680664" y="1500" type="line"/>
			<point x="1233.2677001953" y="1106.7125244141" type="line"/>
			<point x="1133.2689208984" y="1106.7125244141" type="line"/>
			<point x="1160.5141601562" y="1390.6889648438" type="line"/>
			<point x="791.3731079102" y="1390.6889648438" type="line"/>
			<point x="769.3731079102" y="1370.6889648438" type="line"/>
			<point x="651.8092041016" y="754" type="line"/>
			<point x="531.4495849609" y="115.001953125" type="line"/>
			<point x="726.4466552734" y="92.001953125" type="line"/>
			<point x="715.8062744141" y="0" type="line"/>
			<point x="158.1171875" y="0" type="line"/>
			<point x="179.7575683594" y="92.001953125" type="line"/>
			<point x="371.7546386719" y="115.001953125" type="line"/>
			<point x="494.1142578125" y="754" type="line"/>
			<point x="615.6781616211" y="1370.6889648438" type="line"/>
			<point x="611.6781616211" y="1390.6889648438" type="line"/>
			<point x="233.2819213867" y="1390.6889648438" type="line"/>
			<point x="158.0352172852" y="1106.7125244141" type="line"/>
		</contour>
	</outline>
	<anchor name="bottom" x="451" y="0"/>
	<anchor name="center" x="584" y="750"/>
	<anchor name="top" x="732" y="1500"/>
	<anchor name="cy_descender" x="755" y="100"/>
</glyph>
<glyph name="U" format="2">
	<unicode hex="0055"/>
	<advance width="1343"/>
	<outline>
		<contour>
			<point x="106.4527587891" y="1388.998046875" type="line"/>
			<point x="120.3331298828" y="1500" type="line"/>
			<point x="684.4735717773" y="1500" type="line"/>
			<point x="668.5932006836" y="1388.998046875" type="line"/>
			<point x="457.5961303711" y="1364.998046875" type="line"/>
			<point x="345.4765014648" y="794" type="line" smooth="yes"/>
			<point x="325.9776000977" y="693.131652832"/>
			<point x="289.1292724609" y="481.7516479492"/>
			<point x="295.1292724609" y="367.2744140625" type="qcurve" smooth="yes"/>
			<point x="300.1292724609" y="237.0593261719"/>
			<point x="445.2033081055" y="80.3378295898"/>
			<point x="570.1680908203" y="80.3378295898" type="qcurve" smooth="yes"/>
			<point x="734.5972900391" y="80.3378295898"/>
			<point x="919.8527832031" y="281.1054077148"/>
			<point x="960.962097168" y="491.3510742188" type="qcurve" smooth="yes"/>
			<point x="1021.6571044922" y="794" type="line"/>
			<point x="1123.7767333984" y="1364.998046875" type="line"/>
			<point x="890.7796630859" y="1388.998046875" type="line"/>
			<point x="904.6600341797" y="1500" type="line"/>
			<point x="1520.05078125" y="1500" type="line"/>
			<point x="1507.1704101562" y="1388.998046875" type="line"/>
			<point x="1284.1733398438" y="1364.998046875" type="line"/>
			<point x="1172.0537109375" y="794" type="line"/>
			<point x="1114.0537109375" y="493" type="line" smooth="yes"/>
			<point x="1062.2041625977" y="227.1234741211"/>
			<point x="801.7694702148" y="-43.8005371094"/>
			<point x="555.5803222656" y="-43.8005371094" type="qcurve" smooth="yes"/>
			<point x="341.3532714844" y="-43.8005371094"/>
			<point x="151.3302001953" y="202"/>
			<point x="141.3302001953" y="364" type="qcurve" smooth="yes"/>
			<point x="137.3302001953" y="444"/>
			<point x="154.3302001953" y="616"/>
			<point x="190.3302001953" y="794" type="qcurve" smooth="yes"/>
			<point x="306.4498291016" y="1364.998046875" type="line"/>
		</contour>
	</outline>
	<anchor name="bottom" x="588" y="0"/>
	<anchor name="ogonek" x="810" y="0"/>
	<anchor name="top" x="908" y="1500"/>
	<anchor name="topright" x="1561" y="1500"/>
</glyph>
<glyph name="V" format="2">
	<unicode hex="0056"/>
	<advance width="1204"/>
	<outline>
		<contour>
			<point x="48.9808349609" y="1387.3181152344" type="line"/>
			<point x="64.1011962891" y="1500" type="line"/>
			<point x="556.8469848633" y="1500" type="line"/>
			<point x="542.4465942383" y="1390.6779785156" type="line"/>
			<point x="368.8135375977" y="1364.998046875" type="line"/>
			<point x="412.8984985352" y="783.0262451172" type="line"/>
			<point x="447.4135131836" y="446.3924560547" type="line"/>
			<point x="463.0328979492" y="280.3656616211" type="line"/>
			<point x="495.2731323242" y="280.3656616211" type="line"/>
			<point x="600.6939086914" y="453.3964233398" type="line"/>
			<point x="786.1195068359" y="824.9502563477" type="line"/>
			<point x="1077.4588623047" y="1363.998046875" type="line"/>
			<point x="891.6654052734" y="1389.4379882812" type="line"/>
			<point x="911.0657958984" y="1500" type="line"/>
			<point x="1417.4743041992" y="1500" type="line"/>
			<point x="1387.3539428711" y="1386.078125" type="line"/>
			<point x="1233.9596557617" y="1364.998046875" type="line"/>
			<point x="890.5552978516" y="766.6118164062" type="line"/>
			<point x="439.5333862305" y="-8" type="line"/>
			<point x="349.3543701172" y="-8" type="line"/>
			<point x="274.7487182617" y="733.4777832031" type="line"/>
			<point x="211.5745849609" y="1364.998046875" type="line"/>
		</contour>
	</outline>
	<anchor name="bottom" x="373" y="0"/>
	<anchor name="top" x="743" y="1500"/>
</glyph>
<glyph name="W" format="2">
	<unicode hex="0057"/>
	<advance width="1714"/>
	<outline>
		<contour>
			<point x="50.1225585938" y="1388.998046875" type="line"/>
			<point x="59.0029296875" y="1500" type="line"/>
			<point x="556.5189208984" y="1500" type="line"/>
			<point x="547.6385498047" y="1388.998046875" type="line"/>
			<point x="372.6414794922" y="1364.998046875" type="line"/>
			<point x="376.5591430664" y="796.986328125" type="line"/>
			<point x="374.8997802734" y="440.1807250977" type="line"/>
			<point x="375.3358764648" y="292.6513061523" type="line"/>
			<point x="414.296081543" y="292.6513061523" type="line"/>
			<point x="500.9142456055" y="447.1368408203" type="line"/>
			<point x="647.0310668945" y="758.0972900391" type="line"/>
			<point x="848.6973876953" y="1132.6560058594" type="line"/>
			<point x="859.2891235352" y="1364.998046875" type="line"/>
			<point x="692.2920532227" y="1388.998046875" type="line"/>
			<point x="701.1724243164" y="1500" type="line"/>
			<point x="1206.2849731445" y="1500" type="line"/>
			<point x="1197.4046020508" y="1388.998046875" type="line"/>
			<point x="1002.4075317383" y="1364.998046875" type="line"/>
			<point x="988.3162231445" y="826.9685058594" type="line"/>
			<point x="983.9349975586" y="439.7902832031" type="line"/>
			<point x="981.8007202148" y="292.6513061523" type="line"/>
			<point x="1021.760925293" y="292.6513061523" type="line"/>
			<point x="1107.4122314453" y="446.7029418945" type="line"/>
			<point x="1289.491394043" y="816.9085693359" type="line"/>
			<point x="1583.9376831055" y="1360.998046875" type="line"/>
			<point x="1391.940612793" y="1388.998046875" type="line"/>
			<point x="1414.8209838867" y="1500" type="line"/>
			<point x="1966.9608764648" y="1500" type="line"/>
			<point x="1944.0805053711" y="1388.998046875" type="line"/>
			<point x="1744.0834350586" y="1361.998046875" type="line"/>
			<point x="1412.1699829102" y="759.2672119141" type="line"/>
			<point x="960.2495117188" y="-8" type="line"/>
			<point x="849.110534668" y="-8" type="line"/>
			<point x="847.9403686523" y="807.2980957031" type="line"/>
			<point x="854.8014526367" y="909.0466308594" type="line"/>
			<point x="842.8014526367" y="909.0466308594" type="line"/>
			<point x="765.8457641602" y="759.5811157227" type="line"/>
			<point x="373.4194946289" y="-8" type="line"/>
			<point x="242.1906738281" y="-8" type="line"/>
			<point x="229.2001953125" y="735.986328125" type="line"/>
			<point x="202.1196289062" y="1364.998046875" type="line"/>
		</contour>
	</outline>
	<anchor name="bottom" x="691" y="0"/>
	<anchor name="top" x="981" y="1500"/>
</glyph>
<glyph name="X" format="2">
	<unicode hex="0058"/>
	<advance width="1166"/>
	<outline>
		<contour>
			<point x="-147.2882080078" y="0" type="line"/>
			<point x="-118.6478271484" y="96.001953125" type="line"/>
			<point x="60.3492431641" y="116.001953125" type="line"/>
			<point x="541.4865112305" y="761.2836303711" type="line"/>
			<point x="324.1196289062" y="1373.998046875" type="line"/>
			<point x="140.1225585938" y="1397.998046875" type="line"/>
			<point x="140.0029296875" y="1500" type="line"/>
			<point x="703.1875" y="1500" type="line"/>
			<point x="703.3071289062" y="1396.998046875" type="line"/>
			<point x="496.3100585938" y="1373.998046875" type="line"/>
			<point x="594.4196777344" y="1054.8300170898" type="line"/>
			<point x="649.1121826172" y="903.1029663086" type="line"/>
			<point x="661.1121826172" y="903.1029663086" type="line"/>
			<point x="789.0823974609" y="1060.567565918" type="line"/>
			<point x="984.5223388672" y="1368.998046875" type="line"/>
			<point x="819.5252685547" y="1396.998046875" type="line"/>
			<point x="853.4056396484" y="1500" type="line"/>
			<point x="1343.9479980469" y="1500" type="line"/>
			<point x="1316.0676269531" y="1396.998046875" type="line"/>
			<point x="1135.0705566406" y="1373.998046875" type="line"/>
			<point x="693.2430419922" y="795.5517578125" type="line"/>
			<point x="930.56640625" y="111.001953125" type="line"/>
			<point x="1131.5634765625" y="91.001953125" type="line"/>
			<point x="1142.9230957031" y="0" type="line"/>
			<point x="560.5971069336" y="0" type="line"/>
			<point x="548.237487793" y="91.001953125" type="line"/>
			<point x="755.2345581055" y="111.001953125" type="line"/>
			<point x="638.2474365234" y="499.3932495117" type="line"/>
			<point x="584.3392944336" y="652.3611450195" type="line"/>
			<point x="572.3392944336" y="652.3611450195" type="line"/>
			<point x="440.1657104492" y="495.2772827148" type="line"/>
			<point x="195.3513183594" y="116.001953125" type="line"/>
			<point x="394.3483886719" y="96.001953125" type="line"/>
			<point x="375.7080078125" y="0" type="line"/>
		</contour>
	</outline>
	<anchor name="bottom" x="453" y="0"/>
	<anchor name="top" x="723" y="1500"/>
	<anchor name="cy_descender" x="1125" y="100"/>
	<anchor name="center" x="591" y="791"/>
</glyph>
<glyph name="Y" format="2">
	<unicode hex="0059"/>
	<advance width="1166"/>
	<outline>
		<contour>
			<point x="122.9179077148" y="0" type="line"/>
			<point x="142.5582885742" y="91.001953125" type="line"/>
			<point x="369.5553588867" y="111.001953125" type="line"/>
			<point x="476.9681396484" y="626.5667114258" type="line"/>
			<point x="363.4260253906" y="956.7369384766" type="line"/>
			<point x="210.1196289062" y="1369.998046875" type="line"/>
			<point x="54.1225585938" y="1392.998046875" type="line"/>
			<point x="49.0029296875" y="1500" type="line"/>
			<point x="539.3171386719" y="1500" type="line"/>
			<point x="544.4367675781" y="1392.998046875" type="line"/>
			<point x="366.4396972656" y="1373.998046875" type="line"/>
			<point x="473.9762573242" y="1025.6374511719" type="line"/>
			<point x="609" y="783" type="line"/>
			<point x="619" y="783" type="line"/>
			<point x="824" y="1077" type="line"/>
			<point x="992.4698486328" y="1364.998046875" type="line"/>
			<point x="812.4727783203" y="1387.998046875" type="line"/>
			<point x="844.3531494141" y="1500" type="line"/>
			<point x="1339.5545654297" y="1500" type="line"/>
			<point x="1306.6741943359" y="1387.998046875" type="line"/>
			<point x="1120.6771240234" y="1363.998046875" type="line"/>
			<point x="903" y="1013" type="line"/>
			<point x="601.9807739258" y="613.3615722656" type="line"/>
			<point x="503.6484985352" y="111.001953125" type="line"/>
			<point x="718.6455688477" y="91.001953125" type="line"/>
			<point x="702.0051879883" y="0" type="line"/>
		</contour>
	</outline>
	<anchor name="bottom" x="443" y="0"/>
	<anchor name="top" x="731" y="1500"/>
	<anchor name="tonos" x="-13" y="1500"/>
	<anchor name="center" x="553" y="579"/>
</glyph>
<glyph name="a" format="2">
	<unicode hex="0061"/>
	<advance width="1132"/>
	<outline>
		<contour>
			<point x="34.2513427734" y="311" type="qcurve" smooth="yes"/>
			<point x="25.2513427734" y="603"/>
			<point x="480.9184280023" y="997.25"/>
			<point x="665.6727004632" y="997.25" type="qcurve" smooth="yes"/>
			<point x="705.812837182" y="997.25"/>
			<point x="761.0197753906" y="986.25"/>
			<point x="776.2130126953" y="974.25" type="qcurve"/>
			<point x="852.2650756836" y="1051.25" type="line"/>
			<point x="878.6070556641" y="1051.25" type="line"/>
			<point x="953.4595656976" y="855.25" type="line"/>
			<point x="847.2274489984" y="389" type="line"/>
			<point x="810.3998122796" y="209" type="line"/>
			<point x="833.0537429437" y="153"/>
			<point x="852.003083764" y="88"/>
			<point x="876.0108352289" y="44" type="qcurve"/>
			<point x="702.3759666079" y="-18" type="line"/>
			<point x="686.0054832095" y="34.4606933594"/>
			<point x="671.5928245181" y="137.8258666992"/>
			<point x="659.6310325259" y="195.0955200195" type="qcurve"/>
			<point x="526.3610740298" y="70.9645996094"/>
			<point x="355.5250754946" y="-10"/>
			<point x="290.9501243227" y="-10" type="qcurve" smooth="yes"/>
			<point x="178.7616477602" y="-10"/>
			<point x="41.2513427734" y="138"/>
		</contour>
		<contour>
			<point x="214.4155883789" y="327.0020751953" type="qcurve" smooth="yes"/>
			<point x="217.4155883789" y="206.1927490234"/>
			<point x="279.3805251703" y="106.4635620117"/>
			<point x="339.2298904046" y="106.4635620117" type="qcurve" smooth="yes"/>
			<point x="460.005036889" y="106.4635620117"/>
			<point x="698.783540307" y="328"/>
			<point x="726.9673362368" y="496" type="qcurve" smooth="yes"/>
			<point x="789.9998489007" y="802.7864379883" type="line"/>
			<point x="794.1035766602" y="830.7864379883"/>
			<point x="750.1865554437" y="881.8503417969"/>
			<point x="653.2989822015" y="881.8503417969" type="qcurve" smooth="yes"/>
			<point x="454.4856277093" y="881.8503417969"/>
			<point x="207.4155883789" y="545"/>
		</contour>
	</outline>
	<anchor name="bottom" x="345" y="0"/>
	<anchor name="ogonek" x="732" y="0"/>
	<anchor name="top" x="608" y="1000"/>
</glyph>
<glyph name="f" format="2">
	<unicode hex="0066"/>
	<advance width="421"/>
	<outline>
		<contour>
			<point x="-238.3426513672" y="-408.6457519531" type="line" smooth="yes"/>
			<point x="-215.342956543" y="-325.3653564453" type="line"/>
			<point x="-130.4888305664" y="-335.3653564453" type="line" smooth="yes"/>
			<point x="-37.9916992188" y="-347.7119140625"/>
			<point x="-59.7497558594" y="-258.5093383789"/>
			<point x="-16.9357299805" y="15.139831543" type="qcurve" smooth="yes"/>
			<point x="113.8767089844" y="863" type="line"/>
			<point x="116.2232666016" y="900" type="line"/>
			<point x="177.9736328125" y="1262.3547363281" type="line" smooth="yes"/>
			<point x="207.4133300781" y="1440.1911621094"/>
			<point x="320.1795654297" y="1589.3547363281"/>
			<point x="413.9216308594" y="1589.3547363281" type="qcurve" smooth="yes"/>
			<point x="492.8142089844" y="1589.3547363281"/>
			<point x="601.1618652344" y="1499.7350463867"/>
			<point x="601.1618652344" y="1449.5595703125" type="qcurve" smooth="yes"/>
			<point x="601.1618652344" y="1421.3840942383"/>
			<point x="563.952331543" y="1362.8911743164"/>
			<point x="527.6173095703" y="1362.8911743164" type="qcurve" smooth="yes"/>
			<point x="527.6173095703" y="1362.8911743164"/>
			<point x="485.6173095703" y="1394.8911743164"/>
			<point x="463.6173095703" y="1411.8911743164" type="qcurve" smooth="yes"/>
			<point x="436.6173095703" y="1437.8911743164"/>
			<point x="392.8343505859" y="1490.3678588867"/>
			<point x="381.7445068359" y="1490.3678588867" type="qcurve" smooth="yes"/>
			<point x="350.1890869141" y="1490.3678588867"/>
			<point x="355.5054321289" y="1412.0185546875"/>
			<point x="340.8798828125" y="1322.1187133789" type="qcurve" smooth="yes"/>
			<point x="265.9093017578" y="894" type="line"/>
			<point x="279.9093017578" y="871" type="line"/>
			<point x="139.9851074219" y="86.3542480469" type="line" smooth="yes"/>
			<point x="86.3989257812" y="-217.5955810547"/>
			<point x="57.1810302734" y="-469.6457519531"/>
			<point x="-89.5281982422" y="-469.6457519531" type="qcurve"/>
		</contour>
		<contour>
			<point x="-33.1331787109" y="862.0759887695" type="line"/>
			<point x="-35.9587402344" y="916" type="line"/>
			<point x="158.6888427734" y="958" type="line"/>
			<point x="462.1811523438" y="938" type="line"/>
			<point x="427.673034668" y="866.0759887695" type="line"/>
			<point x="189.0726318359" y="863.0759887695" type="line"/>
			<point x="191.3865966797" y="845.0759887695" type="line"/>
		</contour>
	</outline>
	<anchor name="bottom" x="217" y="0"/>
	<anchor name="top" x="554" y="1536"/>
</glyph>
<glyph name="g" format="2">
	<unicode hex="0067"/>
	<advance width="1107"/>
	<outline>
		<contour>
			<point x="35.9087524414" y="311.5" type="qcurve" smooth="yes"/>
			<point x="26.2548217773" y="573"/>
			<point x="370.6182861328" y="995"/>
			<point x="569.9315185547" y="995" type="qcurve" smooth="yes"/>
			<point x="644.4708251953" y="995"/>
			<point x="746.1455078125" y="971"/>
			<point x="767.049987793" y="952" type="qcurve"/>
			<point x="833.0724487305" y="1051" type="line"/>
			<point x="897.0724487305" y="1051" type="line"/>
			<point x="931.3224487305" y="818" type="line"/>
			<point x="824.0724487305" y="444" type="line" smooth="yes"/>
			<point x="784.5724487305" y="280.75"/>
			<point x="759.4830322266" y="186.9288330078"/>
			<point x="699.8482055664" y="-8.0711669922" type="qcurve" smooth="yes"/>
			<point x="600.2005004883" y="-294.9252319336"/>
			<point x="388.8634643555" y="-460.0711669922"/>
			<point x="254.1336669922" y="-460.0711669922" type="qcurve"/>
			<point x="63.14453125" y="-391.0711669922" type="line"/>
			<point x="81.9442749023" y="-316.2736206055" type="line"/>
			<point x="200.9071655273" y="-332.2736206055" type="line" smooth="yes"/>
			<point x="399.712890625" y="-350.6326293945"/>
			<point x="506.6814575195" y="-193.5268554688"/>
			<point x="572.5757446289" y="31.9288330078" type="qcurve" smooth="yes"/>
			<point x="615.453918457" y="176.326965332" type="line"/>
			<point x="576.7667236328" y="97.3613891602"/>
			<point x="367.4514770508" y="-15"/>
			<point x="261.9056396484" y="-15" type="qcurve" smooth="yes"/>
			<point x="165.2561645508" y="-15"/>
			<point x="40.2357177734" y="123.223449707"/>
		</contour>
		<contour>
			<point x="217.3533325195" y="319.5162353516" type="qcurve" smooth="yes"/>
			<point x="219.6802978516" y="196.3347167969"/>
			<point x="299.0760498047" y="96.9392089844"/>
			<point x="357.4307250977" y="96.9392089844" type="qcurve" smooth="yes"/>
			<point x="474.7645874023" y="96.9392089844"/>
			<point x="659.8359985352" y="316.2774658203"/>
			<point x="708.84765625" y="529.1906738281" type="qcurve" smooth="yes"/>
			<point x="773.4302978516" y="813.8701171875" type="line"/>
			<point x="768.7763671875" y="845.8701171875"/>
			<point x="700.6477661133" y="883.8701171875"/>
			<point x="604.665222168" y="883.8701171875" type="qcurve" smooth="yes"/>
			<point x="429.4429931641" y="883.8701171875"/>
			<point x="211.0263671875" y="553.864074707"/>
		</contour>
	</outline>
	<anchor name="bottom" x="324" y="-416"/>
	<anchor name="top" x="603" y="1000"/>
</glyph>
<glyph name="h" format="2">
	<unicode hex="0068"/>
	<advance width="1206"/>
	<outline>
		<contour>
			<point x="58.1657714844" y="-19" type="line"/>
			<point x="-4.8342285156" y="50" type="line"/>
			<point x="147.1657714844" y="584" type="line"/>
			<point x="322.8959960938" y="1428.0043945312" type="line"/>
			<point x="141.1008911133" y="1473.0043945312" type="line"/>
			<point x="157.3004150391" y="1534.001953125" type="line"/>
			<point x="390.7609863281" y="1612.001953125" type="line"/>
			<point x="480.7609863281" y="1538.001953125" type="line"/>
			<point x="309.2312011719" y="655" type="line"/>
			<point x="177.2312011719" y="168" type="line"/>
			<point x="274.2312011719" y="40" type="line"/>
		</contour>
		<contour>
			<point x="724.3991699219" y="-30" type="line"/>
			<point x="621.3991699219" y="63" type="line"/>
			<point x="794.453918457" y="717.9958496094" type="line" smooth="yes"/>
			<point x="819.4830322266" y="812.09375"/>
			<point x="784.4434204102" y="905.9958496094"/>
			<point x="740.7689819336" y="905.9958496094" type="qcurve" smooth="yes"/>
			<point x="626.887512207" y="905.9958496094"/>
			<point x="347.7830200195" y="733.8544921875"/>
			<point x="283.7686157227" y="589.3061523438" type="qcurve"/>
			<point x="259.765625" y="671.4138183594" type="line"/>
			<point x="379.5777587891" y="823.4810791016"/>
			<point x="700.9437255859" y="1020"/>
			<point x="817.8187255859" y="1020" type="qcurve" smooth="yes"/>
			<point x="896.4096679688" y="1020"/>
			<point x="973.2438964844" y="813.0085449219"/>
			<point x="927.9645996094" y="618" type="qcurve" smooth="yes"/>
			<point x="801.2640991211" y="112.9975585938" type="line"/>
			<point x="978.0592651367" y="133.9975585938" type="line"/>
			<point x="983.8597412109" y="47" type="line"/>
		</contour>
	</outline>
	<anchor name="bottom" x="420" y="0"/>
	<anchor name="center" x="347" y="1202"/>
	<anchor name="top" x="424" y="1534"/>
</glyph>
<glyph name="l" format="2">
	<unicode hex="006C"/>
	<advance width="572"/>
	<outline>
		<contour>
			<point x="50.3868408203" y="-35" type="line"/>
			<point x="-11.6131591797" y="13" type="line"/>
			<point x="131.3868408203" y="587" type="line"/>
			<point x="316.2876586914" y="1427.1220703125" type="line"/>
			<point x="158.3513793945" y="1477.1220703125" type="line"/>
			<point x="172.5509033203" y="1535.1196289062" type="line"/>
			<point x="386.908203125" y="1610.1196289062" type="line"/>
			<point x="476.908203125" y="1536.1196289062" type="line"/>
			<point x="263.3489990234" y="568" type="line"/>
			<point x="164.9485473633" y="112.9975585938" type="line"/>
			<point x="316.9436645508" y="121.9975585938" type="line"/>
			<point x="322.744140625" y="34" type="line"/>
		</contour>
	</outline>
	<anchor name="bottom" x="201" y="0"/>
	<anchor name="center" x="236" y="770"/>
	<anchor name="top" x="436" y="1534"/>
	<anchor name="topright" x="492" y="1000"/>
	<anchor name="centerright" x="707" y="742"/>
	<anchor name="liga" x="567" y="0"/>
</glyph>
<glyph name="m" format="2">
	<unicode hex="006D"/>
	<advance width="1810"/>
	<outline>
		<contour>
			<point x="45.0034179688" y="-19" type="line"/>
			<point x="-17.9965820312" y="50" type="line"/>
			<point x="144.5034179688" y="584.25" type="line"/>
			<point x="195.7538452148" y="866.0024414062" type="line"/>
			<point x="52.1587524414" y="847.0024414062" type="line"/>
			<point x="61.3582763672" y="957" type="line"/>
			<point x="243.0603027344" y="1008" type="line"/>
			<point x="300.0603027344" y="1008" type="line"/>
			<point x="333.7137451172" y="747.6137695312" type="line"/>
			<point x="318.8103027344" y="639.25" type="line"/>
			<point x="175.3103027344" y="168" type="line"/>
			<point x="272.3103027344" y="36" type="line"/>
		</contour>
		<contour>
			<point x="714.6556396484" y="-24" type="line"/>
			<point x="615.6556396484" y="64" type="line"/>
			<point x="785.9603881836" y="716.9958496094" type="line" smooth="yes"/>
			<point x="811.3069458008" y="812.6995239258"/>
			<point x="766.4154663086" y="911.9958496094"/>
			<point x="725.3547973633" y="911.9958496094" type="qcurve" smooth="yes"/>
			<point x="611.0957641602" y="911.9958496094"/>
			<point x="330.6465454102" y="740.9561767578"/>
			<point x="263.4766235352" y="584.75390625" type="qcurve"/>
			<point x="247.8188476562" y="662.5170898438" type="line"/>
			<point x="354.3698730469" y="809.0959472656"/>
			<point x="648.1925048828" y="1020"/>
			<point x="780.2697753906" y="1020" type="qcurve" smooth="yes"/>
			<point x="879.8212890625" y="1020"/>
			<point x="947.2280273438" y="772.0740966797"/>
			<point x="897.2987060547" y="545" type="qcurve" smooth="yes"/>
			<point x="818.5487060547" y="246" type="line"/>
			<point x="934.5487060547" y="52" type="line"/>
		</contour>
		<contour>
			<point x="1330.3887939453" y="-19" type="line"/>
			<point x="1231.3887939453" y="74" type="line"/>
			<point x="1395.6935424805" y="716.9958496094" type="line" smooth="yes"/>
			<point x="1418.0797729492" y="802.8978881836"/>
			<point x="1380.4951782227" y="911.9958496094"/>
			<point x="1338.1276245117" y="911.9958496094" type="qcurve" smooth="yes"/>
			<point x="1221.9082641602" y="911.9958496094"/>
			<point x="936.8452758789" y="730.9561767578"/>
			<point x="868.266784668" y="574.8918457031" type="qcurve"/>
			<point x="851.7813720703" y="653.6206054688" type="line"/>
			<point x="964.3996582031" y="805.7165527344"/>
			<point x="1280.9017333984" y="1020"/>
			<point x="1406.5615234375" y="1020" type="qcurve" smooth="yes"/>
			<point x="1491.7302246094" y="1020"/>
			<point x="1575.6025390625" y="814.4638671875"/>
			<point x="1531.4801025391" y="619" type="qcurve" smooth="yes"/>
			<point x="1405.5296020508" y="112.9975585938" type="line"/>
			<point x="1581.3247680664" y="133.9975585938" type="line"/>
			<point x="1587.1252441406" y="47" type="line"/>
		</contour>
	</outline>
	<anchor name="bottom" x="958" y="0"/>
	<anchor name="top" x="958" y="1000"/>
	<anchor name="cy_descender" x="1572" y="134"/>
</glyph>
<glyph name="n" format="2">
	<unicode hex="006E"/>
	<advance width="1118"/>
	<outline>
		<contour>
			<point x="51.3999023438" y="-21.7587890625" type="line"/>
			<point x="-11.8759765625" y="25.8959960938" type="line"/>
			<point x="144.0034179688" y="584" type="line"/>
			<point x="197.4935913086" y="869.5888671875" type="line"/>
			<point x="53.098449707" y="850.5888671875" type="line"/>
			<point x="62.0479736328" y="960.5864257812" type="line"/>
			<point x="273.4069824219" y="1001.4655761719" type="line"/>
			<point x="302.1293945312" y="1001.4655761719" type="line"/>
			<point x="337.060546875" y="751.8969726562" type="line"/>
			<point x="320.3793945312" y="639" type="line"/>
			<point x="182.2585449219" y="138.0943603516" type="line"/>
			<point x="250.5" y="35.3533935547" type="line"/>
		</contour>
		<contour>
			<point x="702.6041259766" y="-22.8121337891" type="line"/>
			<point x="628.0867919922" y="58.8618164062" type="line"/>
			<point x="785.4176025391" y="677.3565673828" type="line" smooth="yes"/>
			<point x="810.48828125" y="775.1461181641"/>
			<point x="775.7641601562" y="867.3565673828"/>
			<point x="707.2880859375" y="867.3565673828" type="qcurve" smooth="yes"/>
			<point x="579.9602050781" y="867.3565673828"/>
			<point x="270.5367431641" y="643.1447753906"/>
			<point x="266.2739257812" y="530.5325927734" type="qcurve"/>
			<point x="249.7241210938" y="645.6032714844" type="line"/>
			<point x="304.1729736328" y="785.4776611328"/>
			<point x="634.3576660156" y="1009.5993652344"/>
			<point x="767.7641601562" y="1009.5993652344" type="qcurve" smooth="yes"/>
			<point x="865.1890869141" y="1009.5993652344"/>
			<point x="982.3075561523" y="852.83984375"/>
			<point x="948.1334228516" y="709.8812255859" type="qcurve" smooth="yes"/>
			<point x="804.1967163086" y="112.9975585938" type="line"/>
			<point x="979.5918579102" y="133.9975585938" type="line"/>
			<point x="985.3923339844" y="47" type="line"/>
		</contour>
	</outline>
	<anchor name="bottom" x="522" y="0"/>
	<anchor name="top" x="602" y="1000"/>
	<anchor name="liga" x="1173" y="0"/>
</glyph>
<glyph name="o" format="2">
	<unicode hex="006F"/>
	<advance width="1050"/>
	<outline>
		<contour>
			<point x="14.3755592673" y="551.9912109375" type="qcurve" smooth="yes"/>
			<point x="58.287546572" y="768.7294921875"/>
			<point x="383.7917096095" y="1033.1904296875"/>
			<point x="580.475046572" y="1018.8198242188" type="qcurve" smooth="yes"/>
			<point x="797.8954693751" y="1002.276184082"/>
			<point x="991.3114850001" y="692.2652587891"/>
			<point x="951.9764630275" y="463.7587890625" type="qcurve" smooth="yes"/>
			<point x="914.183311172" y="243.9343261719"/>
			<point x="579.2697369533" y="-36.1645507812"/>
			<point x="379.5015968649" y="-21.8198242188" type="qcurve" smooth="yes"/>
			<point x="171.0607525783" y="-7.379699707"/>
			<point x="-32.0296531351" y="317.7606201172"/>
		</contour>
		<contour>
			<point x="202.1995338767" y="538.8793945312" type="qcurve" smooth="yes"/>
			<point x="171.9163514771" y="363.733734455"/>
			<point x="268.5670265524" y="95.2733154297"/>
			<point x="398.8974098532" y="79.6589355469" type="qcurve" smooth="yes"/>
			<point x="540.5609230368" y="68.6589355469"/>
			<point x="734.9158108676" y="300.8253616227"/>
			<point x="764.8170875876" y="484.826965332" type="qcurve" smooth="yes"/>
			<point x="794.087876464" y="654.9658339022"/>
			<point x="687.4613136618" y="903.4983520508"/>
			<point x="556.4642433493" y="913.4983520508" type="qcurve" smooth="yes"/>
			<point x="414.1341041892" y="924.4983520508"/>
			<point x="230.1197712644" y="715.8962543906"/>
		</contour>
	</outline>
	<anchor name="bottom" x="358" y="0"/>
	<anchor name="center" x="461" y="500"/>
	<anchor name="ogonek" x="514" y="0"/>
	<anchor name="top" x="584" y="1000"/>
	<anchor name="topright" x="663" y="1000"/>
	<anchor name="GRKtop" x="584" y="1000"/>
	<anchor name="yu_dash" x="83" y="498"/>
</glyph>
<glyph name="p" format="2">
	<unicode hex="0070"/>
	<advance width="1010"/>
	<outline>
		<contour>
			<point x="-116.7553710938" y="-393.0211181641" type="line"/>
			<point x="108.4438476562" y="487" type="line"/>
			<point x="174.4438476562" y="760.75" type="line"/>
			<point x="83.4438476562" y="957.75" type="line"/>
			<point x="144.4057617188" y="1028.75" type="line"/>
			<point x="220.4057617188" y="1028.75" type="line"/>
			<point x="320.4057617188" y="791.5278930664" type="line"/>
			<point x="384.4294433594" y="874.5620727539"/>
			<point x="615.3682250977" y="1028.75"/>
			<point x="736.8767700195" y="1028.75" type="qcurve" smooth="yes"/>
			<point x="793.4440917969" y="1028.75"/>
			<point x="911.7695922852" y="853.25"/>
			<point x="910.4235229492" y="722.25" type="qcurve" smooth="yes"/>
			<point x="909.0774536133" y="403"/>
			<point x="536.5999145508" y="8"/>
			<point x="303.620300293" y="8" type="qcurve" smooth="yes"/>
			<point x="211.4270629883" y="8"/>
			<point x="138.9832763672" y="19"/>
			<point x="124.4057617188" y="27" type="qcurve"/>
			<point x="40.5560302734" y="-360.0235595703" type="line"/>
			<point x="138.751159668" y="-409.0235595703" type="line"/>
			<point x="112.5516357422" y="-476.0211181641" type="line"/>
			<point x="1.1945800781" y="-493.0211181641" type="line"/>
		</contour>
		<contour>
			<point x="184.739440918" y="242.6683959961" type="line"/>
			<point x="167.1903686523" y="176.1450805664"/>
			<point x="249.8847045898" y="105.1136474609"/>
			<point x="293.2329711914" y="106.1136474609" type="qcurve" smooth="yes"/>
			<point x="506.2318115234" y="111.1136474609"/>
			<point x="726.3508911133" y="462.4802246094"/>
			<point x="732.1411743164" y="676.1211547852" type="qcurve" smooth="yes"/>
			<point x="735.7093505859" y="786.2991333008"/>
			<point x="661.3026733398" y="894.5247802734"/>
			<point x="605.7033081055" y="892.5247802734" type="qcurve" smooth="yes"/>
			<point x="545.2382202148" y="890.5247802734"/>
			<point x="371.950012207" y="755.6525878906"/>
			<point x="322.1197509766" y="688.8118286133" type="qcurve"/>
			<point x="253.4534301758" y="464.2860107422" type="line"/>
		</contour>
	</outline>
	<anchor name="bottom" x="599" y="0"/>
	<anchor name="top" x="599" y="1000"/>
</glyph>
<glyph name="s" format="2">
	<unicode hex="0073"/>
	<advance width="817"/>
	<outline>
		<contour>
			<point x="-12.1727294922" y="211" type="qcurve" smooth="yes"/>
			<point x="-12.1727294922" y="296"/>
			<point x="93.1373291016" y="384"/>
			<point x="162.9300537109" y="384" type="qcurve" smooth="yes"/>
			<point x="200.9300537109" y="356" type="line"/>
			<point x="200.9300537109" y="157.9067382812" type="line" smooth="yes"/>
			<point x="200.9300537109" y="113.2241821289"/>
			<point x="225.9077758789" y="80.7227172852"/>
			<point x="320.1857299805" y="80.7227172852" type="qcurve" smooth="yes"/>
			<point x="431.7929077148" y="80.7227172852"/>
			<point x="572.294921875" y="157.4669189453"/>
			<point x="572.294921875" y="234.6919555664" type="qcurve" smooth="yes"/>
			<point x="572.294921875" y="301.4235229492"/>
			<point x="496.8165893555" y="370.119934082"/>
			<point x="371.8931884766" y="451.6148681641" type="qcurve" smooth="yes"/>
			<point x="230.1569824219" y="541.3579101562"/>
			<point x="117.6896972656" y="650.2939453125"/>
			<point x="122.8276367188" y="774.2939453125" type="qcurve" smooth="yes"/>
			<point x="128.9655761719" y="897.5"/>
			<point x="337.1322021484" y="1024.19921875"/>
			<point x="498.1280517578" y="1024.19921875" type="qcurve" smooth="yes"/>
			<point x="632.9407958984" y="1024.19921875"/>
			<point x="794.0255126953" y="915"/>
			<point x="794.0255126953" y="824" type="qcurve" smooth="yes"/>
			<point x="794.0255126953" y="751.75"/>
			<point x="709.5775146484" y="660"/>
			<point x="671.9229736328" y="649" type="qcurve" smooth="yes"/>
			<point x="603.9229736328" y="689" type="line"/>
			<point x="603.9229736328" y="813.8721923828" type="line" smooth="yes"/>
			<point x="603.9229736328" y="853.9738769531"/>
			<point x="531.2734985352" y="905.6423950195"/>
			<point x="451.3595581055" y="905.6423950195" type="qcurve" smooth="yes"/>
			<point x="374.1226196289" y="905.6423950195"/>
			<point x="285.2734375" y="853.611328125"/>
			<point x="285.2734375" y="801.9042358398" type="qcurve" smooth="yes"/>
			<point x="285.2734375" y="745.4821777344"/>
			<point x="368.6839599609" y="660.1319580078"/>
			<point x="486.3082275391" y="589.7164306641" type="qcurve" smooth="yes"/>
			<point x="601.8854980469" y="520.6458740234"/>
			<point x="741.0168457031" y="369.0010986328"/>
			<point x="741.0168457031" y="247.9045410156" type="qcurve"/>
			<point x="739.3323974609" y="125.2497558594"/>
			<point x="510.099609375" y="-24.19921875"/>
			<point x="325.3935546875" y="-24.19921875" type="qcurve" smooth="yes"/>
			<point x="156.7340087891" y="-24.19921875"/>
			<point x="-12.1727294922" y="115"/>
		</contour>
	</outline>
	<anchor name="bottom" x="282" y="0"/>
	<anchor name="top" x="446" y="1000"/>
</glyph>
<glyph name="t" format="2">
	<unicode hex="0074"/>
	<advance width="578"/>
	<outline>
		<contour>
			<point x="107.9268188477" y="-25" type="line"/>
			<point x="29.9268188477" y="43" type="line"/>
			<point x="124.9268188477" y="538" type="line"/>
			<point x="181.0663452148" y="857.8376464844" type="line"/>
			<point x="31.4315795898" y="869.8376464844" type="line"/>
			<point x="39.0989379883" y="921" type="line"/>
			<point x="147.1806030273" y="947"/>
			<point x="319.6311645508" y="1188.6746826172"/>
			<point x="336.4873657227" y="1303" type="qcurve"/>
			<point x="401.4229125977" y="1303" type="line"/>
			<point x="435.4229125977" y="1252" type="line"/>
			<point x="254.9229125977" y="510" type="line"/>
			<point x="189.3225097656" y="114.9975585938" type="line"/>
			<point x="411.8846435547" y="126.9975585938" type="line"/>
			<point x="411.4846191406" y="44.1999511719" type="line"/>
		</contour>
		<contour>
			<point x="264.0769042969" y="876.8376464844" type="line"/>
			<point x="303.4268188477" y="956" type="line"/>
			<point x="579.7612915039" y="956" type="line"/>
			<point x="585.4113769531" y="902.8376464844" type="line"/>
		</contour>
	</outline>
	<anchor name="bottom" x="149" y="0"/>
	<anchor name="center" x="262" y="622"/>
	<anchor name="top" x="322" y="1179"/>
	<anchor name="topright" x="600" y="920"/>
</glyph>
<glyph name="v" format="2">
	<unicode hex="0076"/>
	<advance width="881"/>
	<outline>
		<contour>
			<point x="256.6052246094" y="-35.3995361328" type="line"/>
			<point x="174.7933349609" y="514.1436767578" type="line"/>
			<point x="124.0018920898" y="857.2524414062" type="line"/>
			<point x="10.2736816406" y="854.2524414062" type="line"/>
			<point x="9.2736206055" y="955.25" type="line"/>
			<point x="158.0002441406" y="1005.25" type="line"/>
			<point x="282.8093261719" y="1005.25" type="line"/>
			<point x="332.0057373047" y="545.5648193359" type="line"/>
			<point x="349.8981323242" y="318.1710205078" type="line"/>
			<point x="353.2794189453" y="214.3799438477" type="line"/>
			<point x="371.5068359375" y="214.3799438477" type="line"/>
			<point x="477.1591186523" y="342.9427490234" type="line"/>
			<point x="623.7115478516" y="525.2891845703"/>
			<point x="709.6494750977" y="668.1838378906"/>
			<point x="713.6494750977" y="738.6373291016" type="qcurve" smooth="yes"/>
			<point x="717.6494750977" y="827.1818847656"/>
			<point x="613.8317871094" y="903.7950439453"/>
			<point x="613.8317871094" y="955.0706787109" type="qcurve" smooth="yes"/>
			<point x="613.8317871094" y="992.5316772461"/>
			<point x="677.5989990234" y="1057.1084594727"/>
			<point x="728.9404907227" y="1057.1084594727" type="qcurve" smooth="yes"/>
			<point x="792.8642578125" y="1057.1084594727"/>
			<point x="867.6481933594" y="952.8332519531"/>
			<point x="861.6481933594" y="840.321472168" type="qcurve" smooth="yes"/>
			<point x="852.6481933594" y="713.046081543"/>
			<point x="624.1581420898" y="345.9725341797"/>
			<point x="324.2219848633" y="-32.3995361328" type="qcurve"/>
		</contour>
	</outline>
	<anchor name="bottom" x="513" y="0"/>
	<anchor name="top" x="513" y="1000"/>
</glyph>
<glyph name="w" format="2">
	<unicode hex="0077"/>
	<advance width="1358"/>
	<outline>
		<contour>
			<point x="262.8703613281" y="-26" type="line"/>
			<point x="168.9478149414" y="532.7778930664" type="line"/>
			<point x="116.0018920898" y="857.2524414062" type="line"/>
			<point x="9.4075317383" y="854.2524414062" type="line"/>
			<point x="3.6070556641" y="955.25" type="line"/>
			<point x="136.4512939453" y="1005.25" type="line"/>
			<point x="284.6787109375" y="1005.25" type="line"/>
			<point x="327.5889892578" y="601.8977661133" type="line"/>
			<point x="362.5564575195" y="312.1442260742" type="line"/>
			<point x="364.9315795898" y="216.9697265625" type="line"/>
			<point x="376.9315795898" y="216.9697265625" type="line"/>
			<point x="453.6588745117" y="326.6721801758" type="line"/>
			<point x="504.0128173828" y="393.8978881836"/>
			<point x="601.2501831055" y="510.9440917969"/>
			<point x="640.6041259766" y="576.1697998047" type="qcurve"/>
			<point x="581.9251708984" y="891.9055786133" type="line"/>
			<point x="641.5308837891" y="915.9055786133" type="line"/>
			<point x="611.7304077148" y="963.903137207" type="line"/>
			<point x="655.9906005859" y="1006.6272583008" type="line"/>
			<point x="742.8526611328" y="1006.6272583008" type="line"/>
			<point x="804.3106689453" y="583.5690307617" type="line"/>
			<point x="851.1430664062" y="316.7833251953" type="line"/>
			<point x="860.1499633789" y="206.7467651367" type="line"/>
			<point x="872.1499633789" y="206.7467651367" type="line"/>
			<point x="973.7545166016" y="338.8511352539" type="line"/>
			<point x="1136.1001586914" y="534.4942626953"/>
			<point x="1225.9095458984" y="705.6055297852"/>
			<point x="1219.7513427734" y="761.7821044922" type="qcurve" smooth="yes"/>
			<point x="1215.1803588867" y="832.4940185547"/>
			<point x="1094.0042114258" y="905.809387207"/>
			<point x="1095.7283325195" y="958.87109375" type="qcurve" smooth="yes"/>
			<point x="1097.4524536133" y="1013.6984863281"/>
			<point x="1175.1074829102" y="1075.25"/>
			<point x="1243.0037231445" y="1075.25" type="qcurve" smooth="yes"/>
			<point x="1334.4172973633" y="1017.3374023438"/>
			<point x="1416.451965332" y="961.9741210938"/>
			<point x="1410.451965332" y="872.6982421875" type="qcurve" smooth="yes"/>
			<point x="1401.451965332" y="723.8361816406"/>
			<point x="1227.7086181641" y="418.5230102539"/>
			<point x="782.3544921875" y="-26" type="qcurve"/>
			<point x="751.5184936523" y="-26" type="line"/>
			<point x="684.4627685547" y="357.0200805664" type="line"/>
			<point x="675.7961425781" y="477.1266479492" type="line"/>
			<point x="663.7961425781" y="477.1266479492" type="line"/>
			<point x="572.3249511719" y="341.5935058594" type="line"/>
			<point x="542.1676635742" y="276.8931274414"/>
			<point x="411.4982299805" y="116.700378418"/>
			<point x="300.3409423828" y="-26" type="qcurve"/>
		</contour>
	</outline>
	<anchor name="bottom" x="787" y="0"/>
	<anchor name="top" x="717" y="1000"/>
</glyph>
<glyph name="x" format="2">
	<unicode hex="0078"/>
	<advance width="934"/>
	<outline>
		<contour>
			<point x="143.6435546875" y="-21.1995849609" type="qcurve"/>
			<point x="-69.2554931641" y="79.8004150391" type="line"/>
			<point x="-23.2554931641" y="175.8004150391" type="line"/>
			<point x="174.6435546875" y="175.8004150391" type="line" smooth="yes"/>
			<point x="224.8935546875" y="174.6397094727"/>
			<point x="302.1239624023" y="239.0775756836"/>
			<point x="360.0192871094" y="289.0549926758" type="qcurve" smooth="yes"/>
			<point x="446.1605834961" y="356.7154541016"/>
			<point x="451.0823974609" y="388.8555297852"/>
			<point x="513.633972168" y="456.0466918945" type="qcurve"/>
			<point x="346.7525634766" y="893.5024414062" type="line"/>
			<point x="197.3588867188" y="874.3026123047" type="line"/>
			<point x="163.9583740234" y="939.5" type="line"/>
			<point x="333.2807617188" y="1020.5" type="line"/>
			<point x="478.2807617188" y="1001.5" type="line"/>
			<point x="564.5780029297" y="744.8265991211" type="line"/>
			<point x="585.053894043" y="648.4633789062" type="line"/>
			<point x="597.053894043" y="648.4633789062" type="line"/>
			<point x="655.6755371094" y="735.4780273438" type="line" smooth="yes"/>
			<point x="706.8245849609" y="793.2887573242"/>
			<point x="694.0670166016" y="810.9914550781"/>
			<point x="743.8543701172" y="857.1950073242" type="qcurve" smooth="yes"/>
			<point x="826.8068847656" y="931.9265136719"/>
			<point x="969.3882446289" y="1021.6995849609"/>
			<point x="1025.7979736328" y="1021.6995849609" type="qcurve" smooth="yes"/>
			<point x="1083.5454711914" y="1021.6995849609"/>
			<point x="1156.8882446289" y="928.6995849609"/>
			<point x="1154.8882446289" y="856.6995849609" type="qcurve" smooth="yes"/>
			<point x="1151.8882446289" y="794.6995849609"/>
			<point x="1035.1337280273" y="694.6995849609"/>
			<point x="958.1337280273" y="692.6995849609" type="qcurve"/>
			<point x="939.1337280273" y="704.6995849609" type="line"/>
			<point x="939.5109863281" y="793.1905517578" type="line" smooth="yes"/>
			<point x="938.8882446289" y="798.6995849609"/>
			<point x="925.2716674805" y="816.6995849609"/>
			<point x="906.6337280273" y="816.6995849609" type="qcurve" smooth="yes"/>
			<point x="876.8837280273" y="816.6995849609"/>
			<point x="778.829284668" y="764.0496826172"/>
			<point x="708.9204101562" y="704.322265625" type="qcurve" smooth="yes"/>
			<point x="650.5160522461" y="652.9721069336"/>
			<point x="639.3585205078" y="615.7230834961"/>
			<point x="600.2772216797" y="564.2230834961" type="qcurve"/>
			<point x="762.8963012695" y="106.9975585938" type="line"/>
			<point x="887.2900390625" y="123.9975585938" type="line"/>
			<point x="912.0905151367" y="45" type="line"/>
			<point x="724.6724853516" y="-23.1498413086" type="line"/>
			<point x="629.6724853516" y="22.8501586914" type="line"/>
			<point x="546.1057739258" y="274.7529907227" type="line"/>
			<point x="523.3798828125" y="372.8662109375" type="line"/>
			<point x="511.3798828125" y="372.8662109375" type="line"/>
			<point x="456.9529418945" y="293.5296020508" type="line"/>
			<point x="376.3758544922" y="212.3955078125"/>
			<point x="376.6142578125" y="176.9403076172"/>
			<point x="339.5571289062" y="139.272277832" type="qcurve" smooth="yes"/>
			<point x="240.7516479492" y="50.4454345703"/>
			<point x="178.1456298828" y="-18.9774780273"/>
		</contour>
	</outline>
	<anchor name="bottom" x="522" y="0"/>
	<anchor name="top" x="522" y="1000"/>
	<anchor name="cy_descender" x="832" y="134"/>
	<anchor name="center" x="432" y="502"/>
</glyph>
<glyph name="y" format="2">
	<unicode hex="0079"/>
	<advance width="841"/>
	<outline>
		<contour>
			<point x="-329.1151733398" y="-403.0711669922" type="line"/>
			<point x="-309.1151733398" y="-288.0711669922" type="line"/>
			<point x="-96.0301513672" y="-288.0711669922" type="line" smooth="yes"/>
			<point x="40.7190551758" y="-288.0711669922"/>
			<point x="233.8793334961" y="-196.3190307617"/>
			<point x="322.235534668" y="-67.7725830078" type="qcurve" smooth="yes"/>
			<point x="368.2166137695" y="0" type="line"/>
			<point x="313.838684082" y="1" type="line"/>
			<point x="305.3379516602" y="64"/>
			<point x="175.3328857422" y="669.2524414062"/>
			<point x="124.8017578125" y="865.2524414062" type="qcurve"/>
			<point x="3.6071166992" y="855.2524414062" type="line"/>
			<point x="4.6070556641" y="953.25" type="line"/>
			<point x="171.4831542969" y="1011.25" type="line"/>
			<point x="251.5852050781" y="1011.25" type="line"/>
			<point x="306.5852050781" y="879.25" type="line"/>
			<point x="419.8893432617" y="248.1625976562" type="line"/>
			<point x="436.1811523438" y="122.6412353516" type="line"/>
			<point x="448.1811523438" y="122.6412353516" type="line"/>
			<point x="544.1499023438" y="262.7615356445" type="line" smooth="yes"/>
			<point x="681.7981567383" y="461.9354248047"/>
			<point x="712.9276733398" y="654.2417602539"/>
			<point x="694.5159301758" y="719.0902709961" type="qcurve" smooth="yes"/>
			<point x="683.4053955078" y="789.938293457"/>
			<point x="567.189453125" y="856.1661376953"/>
			<point x="567.189453125" y="919.8897705078" type="qcurve" smooth="yes"/>
			<point x="567.189453125" y="968.9930419922"/>
			<point x="649.4650878906" y="1040.1995849609"/>
			<point x="720.5336914062" y="1040.1995849609" type="qcurve" smooth="yes"/>
			<point x="803.4990234375" y="1040.1995849609"/>
			<point x="890.7744140625" y="936.8204345703"/>
			<point x="890.7744140625" y="826.2003173828" type="qcurve" smooth="yes"/>
			<point x="890.7744140625" y="674.617980957"/>
			<point x="632.9539794922" y="247.625793457"/>
			<point x="431.051940918" y="-13.8682250977" type="qcurve" smooth="yes"/>
			<point x="391.478515625" y="-64" type="line" smooth="yes"/>
			<point x="240.7962036133" y="-262.4200439453"/>
			<point x="5.5300292969" y="-460.0711669922"/>
			<point x="-143.3999633789" y="-460.0711669922" type="qcurve"/>
		</contour>
	</outline>
	<anchor name="bottom" x="782" y="0"/>
	<anchor name="top" x="504" y="1000"/>
</glyph>
<glyph name="z" format="2">
	<unicode hex="007A"/>
	<advance width="645"/>
	<outline>
		<contour>
			<point x="-182.3858642578" y="-20.5720214844" type="line"/>
			<point x="-187.9965820312" y="80" type="line"/>
			<point x="-58.5202636719" y="189.75"/>
			<point x="198.6839599609" y="462.75"/>
			<point x="274.6171875" y="549.9918823242" type="qcurve" smooth="yes"/>
			<point x="334.7814941406" y="619.4325561523"/>
			<point x="504.280090332" y="742.25"/>
			<point x="586.9587402344" y="816" type="qcurve"/>
			<point x="168.5886230469" y="812" type="line"/>
			<point x="80.7615966797" y="686.9984130859" type="line"/>
			<point x="-44.1034545898" y="686.9984130859" type="line"/>
			<point x="54.7235717773" y="988" type="line"/>
			<point x="137.7235717773" y="1008" type="line"/>
			<point x="688.5106201172" y="1008" type="line"/>
			<point x="728.7803955078" y="891" type="line"/>
			<point x="634.6235961914" y="795.25"/>
			<point x="378.0693359375" y="534.3174438477"/>
			<point x="321.5660400391" y="469.5" type="qcurve" smooth="yes"/>
			<point x="269.9338378906" y="409.5"/>
			<point x="120.7606811523" y="293"/>
			<point x="48.2299194336" y="234" type="qcurve"/>
			<point x="442.5836181641" y="193.2808837891" type="line"/>
			<point x="590.2907714844" y="332.2156982422" type="line"/>
			<point x="681.1558227539" y="310.2943725586" type="line"/>
			<point x="539.0714111328" y="5.3595581055" type="line"/>
			<point x="485.0714111328" y="-13.6404418945" type="line"/>
			<point x="-73.9558105469" y="73.8255615234" type="line"/>
		</contour>
	</outline>
	<anchor name="bottom" x="443" y="0"/>
	<anchor name="top" x="463" y="1000"/>
	<anchor name="_liga" x="0" y="0"/>
</glyph>
<glyph name="idotless" format="2">
	<unicode hex="0131"/>
	<advance width="529"/>
	<outline>
		<contour>
			<point x="42.2469482422" y="-21" type="line"/>
			<point x="-14.7530517578" y="46" type="line"/>
			<point x="109.2469482422" y="514.5" type="line"/>
			<point x="177.0474243164" y="873.5024414062" type="line"/>
			<point x="66.8522949219" y="863.5024414062" type="line"/>
			<point x="84.8518066406" y="968.5" type="line"/>
			<point x="225.6573486328" y="1007.5" type="line"/>
			<point x="343.6573486328" y="1007.5" type="line"/>
			<point x="353.6573486328" y="871.5" type="line"/>
			<point x="297.6573486328" y="689.5" type="line"/>
			<point x="241.6573486328" y="469.5" type="line"/>
			<point x="158.2568969727" y="125.9975585938" type="line"/>
			<point x="256.4520263672" y="127.9975585938" type="line"/>
			<point x="264.0524902344" y="52" type="line"/>
		</contour>
	</outline>
	<anchor name="bottom" x="180" y="0"/>
	<anchor name="top" x="320" y="1000"/>
	<anchor name="ogonek" x="180" y="0"/>
	<anchor name="yu_dash" x="239" y="498"/>
	<anchor name="liga" x="618" y="0"/>
</glyph>
<glyph name="jdotless" format="2">
	<unicode hex="0237"/>
	<advance width="482"/>
	<outline>
		<contour>
			<point x="197.8942260742" y="874.0024414062" type="qcurve"/>
			<point x="79.0991821289" y="861.0024414062" type="line"/>
			<point x="99.2987060547" y="971" type="line"/>
			<point x="258.8972167969" y="1008" type="line"/>
			<point x="383.8972167969" y="1008" type="line"/>
			<point x="383.8972167969" y="894" type="line"/>
			<point x="320.8972167969" y="674" type="line"/>
			<point x="202.6472167969" y="94" type="line"/>
			<point x="135.3629150391" y="-259.2275390625"/>
			<point x="-20.0520019531" y="-475"/>
			<point x="-160.7083740234" y="-475" type="qcurve"/>
			<point x="-278.8991699219" y="-416" type="line"/>
			<point x="-261.0996704102" y="-330.6022338867" type="line"/>
			<point x="-168.6317749023" y="-339.6022338867" type="line" smooth="yes"/>
			<point x="-70.758972168" y="-347.6022338867"/>
			<point x="-9.370300293" y="-213.9378662109"/>
			<point x="54.4438476562" y="86" type="qcurve" smooth="yes"/>
			<point x="100.4439086914" y="293.3999633789"/>
			<point x="178.4942626953" y="713.4024047852"/>
		</contour>
	</outline>
	<anchor name="bottom" x="88" y="-436"/>
	<anchor name="top" x="320" y="1000"/>
	<anchor name="_liga" x="0" y="0"/>
</glyph>
